PathFileType	4	(X/Y/Z)	Exemple_fichier.trc																																																																																																																															
DataRate	CameraRate	NumFrames	NumMarkers	Units	OrigDataRate	OrigDataStartFrame	OrigNumFrames																																																																																																																											
200	200	6	43	mm	200	751	2000																																																																																																																											
Frame#	Time	LFHD			RFHD			RBHD			LBHD			C7			T10			R10			CLAV			STRN			LSHO			LUPA			LELB			LFRA			LWRA			LWRB			LFIN0			LFINx			LFINy			RSHO			RUPA			RELB			RFRA			RWRA			RWRB			RFIN0			RFINx			RFINy			LASI			RASI			RBSI			LBSI			LTHI			LKNE			LTIB			LANK			LHEE			LTOE			RTHI			RKNE			RTIB			RANK			RHEE			RTOE		
		X1	Y1	Z1	X2	Y2	Z2	X3	Y3	Z3	X4	Y4	Z4	X5	Y5	Z5	X6	Y6	Z6	X7	Y7	Z7	X8	Y8	Z8	X9	Y9	Z9	X10	Y10	Z10	X11	Y11	Z11	X12	Y12	Z12	X13	Y13	Z13	X14	Y14	Z14	X15	Y15	Z15	X16	Y16	Z16	X17	Y17	Z17	X18	Y18	Z18	X19	Y19	Z19	X20	Y20	Z20	X21	Y21	Z21	X22	Y22	Z22	X23	Y23	Z23	X24	Y24	Z24	X25	Y25	Z25	X26	Y26	Z26	X27	Y27	Z27	X28	Y28	Z28	X29	Y29	Z29	X30	Y30	Z30	X31	Y31	Z31	X32	Y32	Z32	X33	Y33	Z33	X34	Y34	Z34	X35	Y35	Z35	X36	Y36	Z36	X37	Y37	Z37	X38	Y38	Z38	X39	Y39	Z39	X40	Y40	Z40	X41	Y41	Z41	X42	Y42	Z42	X43	Y43	Z43
																																																																																																																																		
751	3.75	400.26361	315.91525	1434.60388	504.51645	308.97736	1427.87378	503.6474	158.76463	1409.97095	393.67554	160.81317	1417.54578	440.87506	102.52934	1293.69275	442.57498	65.93996	1152.4281	601.74109	101.00945	1185.66382	451.61017	222.67261	1227.68066	450.87219	327.11118	1097.20105	298.97391	190.5251	1253.13831	237.90556	239.6174	1106.44006	200.3689	261.92636	967.21448	247.84825	364.46445	986.42822	313.61838	455.62753	981.6333	304.9733	460.21625	936.31982	336.29382	496.27185	935.10785	349.67566	511.76678	937.2287	332.5867	501.67896	970.12512	595.90381	167.57825	1253.60815	716.35803	244.14836	1104.56763	769.90161	251.40819	1048.22131	668.91711	391.16565	1043.16345	620.09869	421.27762	1014.57587	656.20844	451.159	1030.44482	618.63617	491.75485	1031.45935	602.34698	503.87732	1035.07739	597.65906	467.98471	1036.57996	323.1568	269.02115	893.36755	557.79285	278.77975	887.96106	480.93756	102.15009	912.04553	409.06082	102.23257	914.04956	343.55142	300.58994	634.2475	297.58093	165.36086	448.55948	322.19876	199.76352	322.96579	309.43045	124.58752	81.64256	356.82474	88.55614	15.29536	288.80997	329.1517	50.01167	538.99799	287.24506	555.92041	611.07196	178.1767	439.74057	588.22852	196.17181	236.30826	608.12	144.55333	75.93362	572.09967	93.26494	14.69596	612.50684	339.19611	47.78151
752	3.755	400.26379	315.97549	1434.53589	504.57938	309.06543	1427.88611	503.59842	158.80548	1409.96509	393.72784	160.85384	1417.50439	440.88303	102.5891	1293.69226	442.59827	66.04701	1152.47778	601.90771	101.05065	1185.79102	451.61804	222.70905	1227.69458	450.85956	327.1423	1097.23206	298.96051	190.54205	1253.14832	237.8949	239.61629	1106.48755	200.3145	261.8298	967.2796	247.81639	364.40805	986.35364	313.62268	455.64175	981.48163	304.92044	460.08804	936.20343	336.28552	496.09882	934.89734	349.58774	511.6904	937.03967	332.5668	501.53281	969.85852	595.90198	167.60066	1253.58386	716.33484	244.13605	1104.47192	769.88489	251.41006	1048.1676	668.88275	391.10983	1042.93335	619.94336	421.14032	1014.30219	656.28528	451.0968	1030.24817	618.58698	491.66006	1031.09253	602.3891	503.87778	1034.71509	597.70294	468.04135	1036.4231	323.17517	268.99643	893.37378	557.77234	278.7424	887.93292	480.92966	102.13451	912.04132	409.12302	102.22073	914.08386	343.53271	300.56165	634.26532	297.55441	165.34398	448.54382	322.19876	199.76352	322.96579	309.38031	124.483	81.63998	356.81638	88.64004	15.29602	288.78717	329.09897	49.98529	539.01324	287.21274	555.94989	611.1225	178.19836	439.7637	588.26556	196.16081	236.29793	608.13263	144.57045	75.92565	572.09967	93.26494	14.69596	612.50732	339.20306	47.78232
753	3.76	400.2543	316.02869	1434.54407	504.5347	309.07498	1427.83789	503.63702	158.87209	1410.03845	393.73801	160.90224	1417.51611	440.87109	102.60386	1293.72388	442.71173	65.86625	1152.51843	601.94141	101.13723	1185.80603	451.66037	222.75357	1227.72815	450.87277	327.08963	1097.20862	298.94394	190.55043	1253.26257	237.90987	239.63574	1106.58789	200.3145	261.8298	967.2796	247.84177	364.34009	986.27045	313.64282	455.51816	981.25287	304.87567	460.0676	936.03217	336.27209	496.09186	934.70667	349.5881	511.65219	936.8609	332.57526	501.53821	969.69366	595.89948	167.7032	1253.67749	716.33197	244.13777	1104.41492	769.85559	251.36963	1048.07703	668.52112	391.01868	1042.63098	619.93707	421.12192	1014.10565	656.21521	451.14529	1030.00879	618.58716	491.62872	1031.08411	602.35791	503.79016	1034.35181	597.69928	468.03488	1036.15588	323.21671	268.91846	893.35284	557.78284	278.7139	887.97034	480.96552	102.06039	912.06635	409.23834	102.20845	914.03345	343.51663	300.51926	634.28357	297.54285	165.2726	448.5528	322.19876	199.76352	322.96579	309.42548	124.53504	81.62395	356.84317	88.60928	15.35297	288.85281	329.15552	50.00062	539.00671	287.1738	555.95697	611.14105	178.10988	439.79044	588.2312	196.1559	236.31531	608.12	144.55333	75.93362	572.08569	93.26156	14.67794	612.60126	339.30356	47.79673
754	3.765	400.29993	316.03333	1434.56677	504.6011	309.1778	1427.84924	503.65079	158.90823	1409.95935	393.81219	160.87735	1417.55334	440.8898	102.70153	1293.77246	442.78375	66.11619	1152.55115	601.95514	101.16444	1185.8678	451.63589	222.84058	1227.73572	450.87473	327.10895	1097.24304	298.94394	190.55043	1253.26257	237.9082	239.61986	1106.59375	200.25734	261.7673	967.37207	247.83507	364.36038	986.27429	313.63052	455.35934	981.13495	304.85263	460.06787	935.8855	336.2088	496.02753	934.51978	349.51077	511.60489	936.71692	332.59641	501.5036	969.52008	595.89148	167.74113	1253.68237	716.37213	244.192	1104.37207	769.82104	251.34184	1047.99939	668.6095	390.97308	1042.51416	621.26202	421.58826	1013.41278	656.20447	451.11673	1029.63477	618.46802	491.58966	1030.54773	602.35596	503.86481	1034.13794	597.64716	468.04324	1035.88477	323.20245	268.88477	893.35944	557.79675	278.69388	887.97278	481.00284	102.00926	912.07739	409.17459	102.19525	914.07355	343.52533	300.46964	634.30914	297.54285	165.2726	448.5528	322.19876	199.76352	322.96579	309.42548	124.53504	81.62395	356.81317	88.57822	15.35381	288.8038	329.082	49.98561	539.01514	287.1326	555.97046	611.1535	178.08939	439.81903	588.25195	196.1115	236.29227	608.12	144.55333	75.93362	572.07031	93.29815	14.69969	612.59894	339.25711	47.80811
755	3.77	400.25714	316.09558	1434.54675	504.66525	309.25275	1427.87122	503.66205	159.03502	1410.01453	393.72836	161.0132	1417.59119	440.89291	102.73692	1293.81396	442.68594	66.14015	1152.61914	601.97369	101.21418	1185.9281	451.64618	222.82425	1227.77576	450.84152	327.07877	1097.24219	298.9313	190.54196	1253.29382	237.89656	239.6228	1106.65967	200.25714	261.7468	967.38965	247.82326	364.33105	986.20654	313.64893	455.35162	981.02777	304.77866	459.97412	935.75989	336.16891	495.88629	934.39624	349.45914	511.38855	936.44354	332.51971	501.44937	969.37878	595.92181	167.8058	1253.71606	716.35742	244.21045	1104.31091	769.81409	251.35487	1047.98071	668.57019	390.97455	1042.23901	621.3175	421.58365	1013.30463	656.25629	451.10095	1029.43018	618.54504	491.5777	1030.2041	602.37354	503.87518	1033.78516	597.71313	468.03555	1035.54883	323.21118	268.85016	893.37585	557.80518	278.66617	887.97186	481.03372	102.00733	912.07043	409.2677	102.16667	914.03412	343.55212	300.43356	634.31641	297.58206	165.16821	448.58795	322.20557	199.79051	323.02777	309.37668	124.53065	81.65285	356.85556	88.61642	15.32292	288.8287	329.16772	50.02596	539.00977	287.09708	555.96094	611.16528	178.05592	439.82037	588.2688	196.11443	236.28348	608.15692	144.60925	75.92637	572.12317	93.22485	14.69861	612.50952	339.21869	47.70681
756	3.775	400.30682	316.13907	1434.54749	504.68442	309.2648	1427.85486	503.67542	159.05101	1410.00549	393.86395	161.01067	1417.56006	440.93033	102.80724	1293.80603	442.79071	66.17612	1152.60767	601.98303	101.2359	1185.94812	451.66443	222.85439	1227.80298	450.82788	327.14706	1097.27075	298.97003	190.51917	1253.32678	237.88625	239.66968	1106.74609	200.20013	261.71939	967.4646	247.79089	364.33856	986.17963	313.56964	455.34921	980.87347	304.75363	459.99036	935.63855	336.09344	495.84671	934.21558	349.39041	511.36884	936.27631	332.5119	501.4028	969.22565	595.96008	167.85419	1253.72522	716.37671	244.2123	1104.27429	769.79633	251.34883	1047.94556	668.49463	390.95224	1042.0116	619.88263	421.02307	1013.50812	656.20203	451.04309	1029.21692	618.57574	491.5546	1030.01904	602.33618	503.81519	1033.43994	597.67511	468.02063	1035.36206	323.22101	268.75049	893.37891	557.81586	278.62268	888.00256	481.08804	102.00918	912.06952	409.26614	102.11593	914.05273	343.55267	300.41214	634.28265	297.58206	165.16821	448.58795	322.20557	199.79051	323.02777	309.33154	124.47861	81.66889	356.81317	88.57822	15.35381	288.82486	329.09256	50.00649	539.00531	287.07834	555.97144	611.18146	178.03047	439.83945	588.2536	196.04878	236.30203	608.15228	144.61761	75.94942	572.12317	93.22485	14.69861	612.59351	339.24603	47.748
